<mxfile host="app.diagrams.net" agent="Mozilla/5.0 (Windows NT 10.0; Win64; x64) AppleWebKit/537.36 (KHTML, like Gecko) Chrome/140.0.0.0 Safari/537.36" version="28.2.3">
  <diagram name="Página-1" id="6Sltt7JWADk6bET8UL1V">
    <mxGraphModel dx="2178" dy="853" grid="1" gridSize="10" guides="1" tooltips="1" connect="1" arrows="1" fold="1" page="1" pageScale="1" pageWidth="827" pageHeight="1169" math="0" shadow="0">
      <root>
        <mxCell id="0" />
        <mxCell id="1" parent="0" />
        <mxCell id="78k_orc3vX6gF0Ja3DNG-1" value="" style="ellipse;shape=cloud;whiteSpace=wrap;html=1;" vertex="1" parent="1">
          <mxGeometry x="354" y="50" width="120" height="80" as="geometry" />
        </mxCell>
        <mxCell id="78k_orc3vX6gF0Ja3DNG-4" value="Iniciar Reconhecimento" style="text;html=1;align=center;verticalAlign=middle;whiteSpace=wrap;rounded=0;" vertex="1" parent="1">
          <mxGeometry x="384" y="130" width="60" height="30" as="geometry" />
        </mxCell>
        <mxCell id="78k_orc3vX6gF0Ja3DNG-7" value="" style="ellipse;shape=cloud;whiteSpace=wrap;html=1;" vertex="1" parent="1">
          <mxGeometry x="-192" y="262.5" width="120" height="80" as="geometry" />
        </mxCell>
        <mxCell id="78k_orc3vX6gF0Ja3DNG-8" value="Criar Dataset" style="text;html=1;align=center;verticalAlign=middle;whiteSpace=wrap;rounded=0;" vertex="1" parent="1">
          <mxGeometry x="-162" y="342.5" width="60" height="30" as="geometry" />
        </mxCell>
        <mxCell id="78k_orc3vX6gF0Ja3DNG-12" value="Informar Nome" style="text;html=1;align=center;verticalAlign=middle;whiteSpace=wrap;rounded=0;" vertex="1" parent="1">
          <mxGeometry x="44" y="342.5" width="60" height="30" as="geometry" />
        </mxCell>
        <mxCell id="78k_orc3vX6gF0Ja3DNG-14" value="Inserir quantidade de capturas" style="text;html=1;align=center;verticalAlign=middle;whiteSpace=wrap;rounded=0;" vertex="1" parent="1">
          <mxGeometry x="269" y="347.5" width="110" height="30" as="geometry" />
        </mxCell>
        <mxCell id="78k_orc3vX6gF0Ja3DNG-22" value="" style="shape=umlActor;verticalLabelPosition=bottom;verticalAlign=top;html=1;outlineConnect=0;" vertex="1" parent="1">
          <mxGeometry x="231" y="270" width="30" height="60" as="geometry" />
        </mxCell>
        <mxCell id="78k_orc3vX6gF0Ja3DNG-23" value="" style="ellipse;whiteSpace=wrap;html=1;" vertex="1" parent="1">
          <mxGeometry x="354" y="270" width="60" height="40" as="geometry" />
        </mxCell>
        <mxCell id="78k_orc3vX6gF0Ja3DNG-24" value="" style="ellipse;whiteSpace=wrap;html=1;" vertex="1" parent="1">
          <mxGeometry x="359" y="276.25" width="50" height="27.5" as="geometry" />
        </mxCell>
        <mxCell id="78k_orc3vX6gF0Ja3DNG-25" value="" style="rounded=1;whiteSpace=wrap;html=1;" vertex="1" parent="1">
          <mxGeometry x="354" y="315" width="60" height="15" as="geometry" />
        </mxCell>
        <mxCell id="78k_orc3vX6gF0Ja3DNG-26" value="" style="shape=flexArrow;endArrow=classic;html=1;rounded=0;startArrow=block;" edge="1" parent="1" source="78k_orc3vX6gF0Ja3DNG-22">
          <mxGeometry width="50" height="50" relative="1" as="geometry">
            <mxPoint x="284" y="303.75" as="sourcePoint" />
            <mxPoint x="351" y="300.5" as="targetPoint" />
          </mxGeometry>
        </mxCell>
        <mxCell id="78k_orc3vX6gF0Ja3DNG-27" value="" style="ellipse;shape=cloud;whiteSpace=wrap;html=1;" vertex="1" parent="1">
          <mxGeometry x="-382" y="260" width="120" height="80" as="geometry" />
        </mxCell>
        <mxCell id="78k_orc3vX6gF0Ja3DNG-28" value="Treinar Dataset" style="text;html=1;align=center;verticalAlign=middle;whiteSpace=wrap;rounded=0;" vertex="1" parent="1">
          <mxGeometry x="-352" y="340" width="60" height="30" as="geometry" />
        </mxCell>
        <mxCell id="78k_orc3vX6gF0Ja3DNG-29" value="&lt;span style=&quot;text-align: start; background-color: rgb(255, 255, 255);&quot;&gt;&lt;font face=&quot;Helvetica&quot; style=&quot;color: rgb(0, 0, 0);&quot;&gt;Ajuste de hardware&lt;/font&gt;&lt;/span&gt;" style="text;html=1;align=center;verticalAlign=middle;whiteSpace=wrap;rounded=0;" vertex="1" parent="1">
          <mxGeometry x="570" y="347.5" width="60" height="30" as="geometry" />
        </mxCell>
        <mxCell id="78k_orc3vX6gF0Ja3DNG-30" value="" style="shape=umlActor;verticalLabelPosition=bottom;verticalAlign=top;html=1;outlineConnect=0;" vertex="1" parent="1">
          <mxGeometry x="585" y="267.5" width="30" height="60" as="geometry" />
        </mxCell>
        <mxCell id="78k_orc3vX6gF0Ja3DNG-35" value="" style="shape=umlActor;verticalLabelPosition=bottom;verticalAlign=top;html=1;outlineConnect=0;" vertex="1" parent="1">
          <mxGeometry x="-10" y="272.5" width="30" height="60" as="geometry" />
        </mxCell>
        <mxCell id="78k_orc3vX6gF0Ja3DNG-36" value="" style="ellipse;whiteSpace=wrap;html=1;" vertex="1" parent="1">
          <mxGeometry x="113" y="272.5" width="60" height="40" as="geometry" />
        </mxCell>
        <mxCell id="78k_orc3vX6gF0Ja3DNG-37" value="" style="ellipse;whiteSpace=wrap;html=1;" vertex="1" parent="1">
          <mxGeometry x="118" y="278.75" width="50" height="27.5" as="geometry" />
        </mxCell>
        <mxCell id="78k_orc3vX6gF0Ja3DNG-38" value="" style="rounded=1;whiteSpace=wrap;html=1;" vertex="1" parent="1">
          <mxGeometry x="113" y="317.5" width="60" height="15" as="geometry" />
        </mxCell>
        <mxCell id="78k_orc3vX6gF0Ja3DNG-39" value="" style="shape=flexArrow;endArrow=classic;html=1;rounded=0;startArrow=block;" edge="1" parent="1" source="78k_orc3vX6gF0Ja3DNG-35">
          <mxGeometry width="50" height="50" relative="1" as="geometry">
            <mxPoint x="43" y="306.25" as="sourcePoint" />
            <mxPoint x="110" y="303" as="targetPoint" />
          </mxGeometry>
        </mxCell>
        <mxCell id="78k_orc3vX6gF0Ja3DNG-40" value="&lt;span style=&quot;text-align: start; background-color: rgb(255, 255, 255);&quot;&gt;&lt;font face=&quot;Helvetica&quot; style=&quot;color: rgb(0, 0, 0);&quot;&gt;Cenário Isolado&lt;/font&gt;&lt;/span&gt;" style="text;html=1;align=center;verticalAlign=middle;whiteSpace=wrap;rounded=0;" vertex="1" parent="1">
          <mxGeometry x="725" y="347.5" width="60" height="30" as="geometry" />
        </mxCell>
        <mxCell id="78k_orc3vX6gF0Ja3DNG-41" value="" style="shape=umlActor;verticalLabelPosition=bottom;verticalAlign=top;html=1;outlineConnect=0;" vertex="1" parent="1">
          <mxGeometry x="740" y="267.5" width="30" height="60" as="geometry" />
        </mxCell>
        <mxCell id="78k_orc3vX6gF0Ja3DNG-42" value="&lt;span style=&quot;text-align: start; background-color: rgb(255, 255, 255);&quot;&gt;&lt;font face=&quot;Helvetica&quot; style=&quot;color: rgb(0, 0, 0);&quot;&gt;Webcam de boa resolução&lt;/font&gt;&lt;/span&gt;" style="text;html=1;align=center;verticalAlign=middle;whiteSpace=wrap;rounded=0;" vertex="1" parent="1">
          <mxGeometry x="875" y="347.5" width="60" height="30" as="geometry" />
        </mxCell>
        <mxCell id="78k_orc3vX6gF0Ja3DNG-43" value="" style="shape=umlActor;verticalLabelPosition=bottom;verticalAlign=top;html=1;outlineConnect=0;" vertex="1" parent="1">
          <mxGeometry x="890" y="267.5" width="30" height="60" as="geometry" />
        </mxCell>
        <mxCell id="78k_orc3vX6gF0Ja3DNG-44" value="" style="endArrow=none;html=1;rounded=0;" edge="1" parent="1" target="78k_orc3vX6gF0Ja3DNG-35">
          <mxGeometry width="50" height="50" relative="1" as="geometry">
            <mxPoint x="-70" y="303" as="sourcePoint" />
            <mxPoint x="-10" y="380" as="targetPoint" />
          </mxGeometry>
        </mxCell>
        <mxCell id="78k_orc3vX6gF0Ja3DNG-56" value="&lt;font style=&quot;font-size: 16px;&quot;&gt;&amp;nbsp;&amp;gt;&amp;gt;&lt;/font&gt;&amp;nbsp;" style="edgeLabel;html=1;align=center;verticalAlign=middle;resizable=0;points=[];" vertex="1" connectable="0" parent="78k_orc3vX6gF0Ja3DNG-44">
          <mxGeometry x="0.0441" y="-2" relative="1" as="geometry">
            <mxPoint as="offset" />
          </mxGeometry>
        </mxCell>
        <mxCell id="78k_orc3vX6gF0Ja3DNG-45" value="" style="endArrow=none;html=1;rounded=0;" edge="1" parent="1">
          <mxGeometry width="50" height="50" relative="1" as="geometry">
            <mxPoint x="-260" y="302" as="sourcePoint" />
            <mxPoint x="-190" y="302" as="targetPoint" />
          </mxGeometry>
        </mxCell>
        <mxCell id="78k_orc3vX6gF0Ja3DNG-54" value="&amp;nbsp;&amp;gt;&amp;gt;&amp;nbsp;" style="edgeLabel;html=1;align=center;verticalAlign=middle;resizable=0;points=[];fontSize=12;" vertex="1" connectable="0" parent="78k_orc3vX6gF0Ja3DNG-45">
          <mxGeometry x="0.0238" y="-4" relative="1" as="geometry">
            <mxPoint y="-3" as="offset" />
          </mxGeometry>
        </mxCell>
        <mxCell id="78k_orc3vX6gF0Ja3DNG-55" value="&lt;font style=&quot;font-size: 16px;&quot;&gt;&amp;nbsp;&amp;gt;&amp;gt;&lt;/font&gt;&amp;nbsp;" style="edgeLabel;html=1;align=center;verticalAlign=middle;resizable=0;points=[];" vertex="1" connectable="0" parent="78k_orc3vX6gF0Ja3DNG-45">
          <mxGeometry x="0.0381" y="-3" relative="1" as="geometry">
            <mxPoint as="offset" />
          </mxGeometry>
        </mxCell>
        <mxCell id="78k_orc3vX6gF0Ja3DNG-46" value="" style="endArrow=none;html=1;rounded=0;" edge="1" parent="1">
          <mxGeometry width="50" height="50" relative="1" as="geometry">
            <mxPoint x="180" y="299.58" as="sourcePoint" />
            <mxPoint x="230" y="299.96461538461534" as="targetPoint" />
          </mxGeometry>
        </mxCell>
        <mxCell id="78k_orc3vX6gF0Ja3DNG-57" value="&lt;font style=&quot;font-size: 16px;&quot;&gt;&amp;nbsp;&amp;gt;&amp;gt;&lt;/font&gt;&amp;nbsp;" style="edgeLabel;html=1;align=center;verticalAlign=middle;resizable=0;points=[];" vertex="1" connectable="0" parent="78k_orc3vX6gF0Ja3DNG-46">
          <mxGeometry x="-0.0061" y="1" relative="1" as="geometry">
            <mxPoint x="1" as="offset" />
          </mxGeometry>
        </mxCell>
        <mxCell id="78k_orc3vX6gF0Ja3DNG-47" value="" style="endArrow=none;html=1;rounded=0;" edge="1" parent="1">
          <mxGeometry width="50" height="50" relative="1" as="geometry">
            <mxPoint x="420" y="297.16" as="sourcePoint" />
            <mxPoint x="580" y="297.16" as="targetPoint" />
          </mxGeometry>
        </mxCell>
        <mxCell id="78k_orc3vX6gF0Ja3DNG-51" value="|=|" style="edgeLabel;html=1;align=center;verticalAlign=middle;resizable=0;points=[];" vertex="1" connectable="0" parent="78k_orc3vX6gF0Ja3DNG-47">
          <mxGeometry x="0.0255" y="-2" relative="1" as="geometry">
            <mxPoint y="-2" as="offset" />
          </mxGeometry>
        </mxCell>
        <mxCell id="78k_orc3vX6gF0Ja3DNG-53" value="&amp;nbsp;|=|&amp;nbsp;" style="edgeLabel;html=1;align=center;verticalAlign=middle;resizable=0;points=[];fontSize=16;fontStyle=0" vertex="1" connectable="0" parent="78k_orc3vX6gF0Ja3DNG-47">
          <mxGeometry x="0.0221" y="-1" relative="1" as="geometry">
            <mxPoint as="offset" />
          </mxGeometry>
        </mxCell>
        <mxCell id="78k_orc3vX6gF0Ja3DNG-48" value="" style="endArrow=none;html=1;rounded=0;" edge="1" parent="1" target="78k_orc3vX6gF0Ja3DNG-41">
          <mxGeometry width="50" height="50" relative="1" as="geometry">
            <mxPoint x="615" y="297" as="sourcePoint" />
            <mxPoint x="665" y="297.38461538461536" as="targetPoint" />
          </mxGeometry>
        </mxCell>
        <mxCell id="78k_orc3vX6gF0Ja3DNG-58" value="&lt;font style=&quot;font-size: 16px;&quot;&gt;&amp;nbsp;&amp;gt;&amp;gt;&lt;/font&gt;&amp;nbsp;" style="edgeLabel;html=1;align=center;verticalAlign=middle;resizable=0;points=[];" vertex="1" connectable="0" parent="78k_orc3vX6gF0Ja3DNG-48">
          <mxGeometry x="-0.2365" y="-1" relative="1" as="geometry">
            <mxPoint x="13" y="-1" as="offset" />
          </mxGeometry>
        </mxCell>
        <mxCell id="78k_orc3vX6gF0Ja3DNG-49" value="" style="endArrow=none;html=1;rounded=0;" edge="1" parent="1">
          <mxGeometry width="50" height="50" relative="1" as="geometry">
            <mxPoint x="770" y="297" as="sourcePoint" />
            <mxPoint x="895" y="297" as="targetPoint" />
          </mxGeometry>
        </mxCell>
        <mxCell id="78k_orc3vX6gF0Ja3DNG-59" value="&lt;font style=&quot;font-size: 16px;&quot;&gt;&amp;nbsp;&amp;gt;&amp;gt;&lt;/font&gt;&amp;nbsp;" style="edgeLabel;html=1;align=center;verticalAlign=middle;resizable=0;points=[];" vertex="1" connectable="0" parent="78k_orc3vX6gF0Ja3DNG-49">
          <mxGeometry x="-0.0194" relative="1" as="geometry">
            <mxPoint as="offset" />
          </mxGeometry>
        </mxCell>
        <mxCell id="78k_orc3vX6gF0Ja3DNG-60" value="" style="endArrow=none;html=1;rounded=0;" edge="1" parent="1">
          <mxGeometry width="50" height="50" relative="1" as="geometry">
            <mxPoint x="-300" y="250" as="sourcePoint" />
            <mxPoint x="350" y="100" as="targetPoint" />
          </mxGeometry>
        </mxCell>
        <mxCell id="78k_orc3vX6gF0Ja3DNG-61" value="" style="endArrow=none;html=1;rounded=0;" edge="1" parent="1">
          <mxGeometry width="50" height="50" relative="1" as="geometry">
            <mxPoint x="600" y="250" as="sourcePoint" />
            <mxPoint x="490" y="100" as="targetPoint" />
          </mxGeometry>
        </mxCell>
      </root>
    </mxGraphModel>
  </diagram>
</mxfile>
